<svg xmlns="http://www.w3.org/2000/svg" version="1.1" xmlns:xlink="http://www.w3.org/1999/xlink" xmlns:svgjs="http://svgjs.com/svgjs" width="1440" height="560" preserveAspectRatio="none" viewBox="0 0 1440 560"><g mask="url(&quot;#SvgjsMask1006&quot;)" fill="none"><rect width="1440" height="560" x="0" y="0" fill="rgba(39, 1, 51, 1)"></rect><path d="M 0,64 C 57.6,85.6 172.8,182.2 288,172 C 403.2,161.8 460.8,-2.6 576,13 C 691.2,28.6 748.8,248 864,250 C 979.2,252 1036.8,37 1152,23 C 1267.2,9 1382.4,148.6 1440,180L1440 560L0 560z" fill="rgba(195, 13, 72, 1)"></path><path d="M 0,354 C 96,385.6 288,504.8 480,512 C 672,519.2 768,398.8 960,390 C 1152,381.2 1344,452.4 1440,468L1440 560L0 560z" fill="rgba(226, 8, 231, 1)"></path></g><defs><mask id="SvgjsMask1006"><rect width="1440" height="560" fill="#ffffff"></rect></mask></defs></svg>